
        <svg xmlns="http://www.w3.org/2000/svg" xmlns:xlink="http://www.w3.org/1999/xlink" version="1.1" width="3236.220472440945" height="866.3284708327926" viewBox="0 0 3236.220472440945 866.3284708327926">
			
			<g transform="scale(11.811023622047244) translate(10, 10)">
				<defs id="SvgjsDefs2891"/><g id="SvgjsG2892" featureKey="symbolFeature-0" transform="matrix(0.7693385561988979,0,0,0.7693385561988979,191.60664426618686,-17.530573346630618)" fill="#fff"><polygon xmlns="http://www.w3.org/2000/svg" points="45.576,30.947 32.59,30.148 32.59,25.353 45.576,25.353 "/><rect xmlns="http://www.w3.org/2000/svg" x="48.572" y="43.333" width="22.974" height="17.98"/><polygon xmlns="http://www.w3.org/2000/svg" points="32.59,36.94 45.576,37.739 45.576,61.313 32.59,61.313 "/><circle xmlns="http://www.w3.org/2000/svg" cx="67.426" cy="87.9" r="4.026"/><circle xmlns="http://www.w3.org/2000/svg" cx="25.074" cy="87.9" r="4.026"/><path xmlns="http://www.w3.org/2000/svg" d="M77,34.9l-55.5-3.4l-1.5-5c-0.2-0.8-1.4-3.4-7.7-3.7c-2.463-0.153-2.588,1.05-2.588,1.05C9.197,25.663,10.8,25.6,10.8,25.6  c4.4,0,6,1.1,6.2,1.5L29,67l-5.2,8.2c-0.2,0.3-1.2,1.7-0.4,3.2c0.6,1.1,1.8,1.4,3.5,1.4h43.7c0.7,0,1.2,0.8,1.2,1.4  c0,0.8,0.7,1.6,1.5,1.6c0.8,0,1.5-0.9,1.5-1.7c0-2.3-1.9-4.3-4.2-4.3H26.5l5.1-8.1l40.7-1.9c2.1,0,3.7-1.6,4.1-3.9L81.1,39  C81.1,36.7,79.2,34.9,77,34.9z M73.5,62.4c-0.1,0.3-0.3,1.4-1.3,1.4l-40.4,2l-9.4-31.4l54.5,3.2c0.6,0,1.1,0.5,1.2,1L73.5,62.4z"/></g><g id="SvgjsG2893" featureKey="nameFeature-0" transform="matrix(1.481920662884531,0,0,1.481920662884531,-1.6004743795124288,-17.78304795461437)" fill="#fff"><path d="M1.08 39.4 l0 -5.64 c0.48 0.12 1.08 0.24 1.76 0.32 c0.68 0.12 1.4 0.2 2.16 0.24 s1.52 0.08 2.32 0.12 s1.56 0.08 2.24 0.08 c1.88 0 3.2 -0.12 4 -0.32 c0.76 -0.2 1.16 -0.56 1.16 -1.12 c0 -0.48 -0.36 -0.84 -0.72 -1.12 c-1.32 -0.88 -2.88 -1.24 -4.44 -1.6 c-4.4 -0.88 -8.44 -2.64 -8.44 -7.68 c0 -5.96 5.64 -7.36 10.48 -7.36 c2.68 0 5.4 0.28 8 0.92 l0 5.64 c-0.4 -0.12 -0.92 -0.2 -1.56 -0.32 c-0.68 -0.08 -1.36 -0.16 -2.12 -0.24 c-1.56 -0.16 -3.04 -0.24 -4.6 -0.24 c-0.88 0 -2.72 0 -3.56 0.32 c-0.56 0.2 -0.92 0.44 -0.92 1.08 c0 0.32 0.08 0.6 0.24 0.84 c0.16 0.28 0.44 0.48 0.8 0.68 c1.08 0.6 2.48 0.96 3.68 1.24 c1 0.24 2 0.52 3.04 0.8 c3.52 0.96 5.84 2.92 5.84 6.68 c0 6.2 -6.16 7.52 -11.12 7.52 c-2.72 0 -5.56 -0.2 -8.24 -0.84 z M29.48 30 l0 10 l-6 0 l0 -28 l6 0 l0 9.84 c1.4 -1.48 3.16 -2.04 5.16 -2.04 c5.68 0 9.24 4.88 9.24 10.2 l0 10 l-6 0 l0 -10 c0 -2.72 -1.08 -4.64 -4 -4.64 c-2.88 0 -4.4 1.84 -4.4 4.64 z M57 34.64 c2.92 0 4.6 -1.72 4.6 -4.64 s-1.68 -4.64 -4.6 -4.64 s-4.6 1.72 -4.6 4.64 s1.68 4.64 4.6 4.64 z M57 40.2 c-6.16 0 -10.6 -4.08 -10.6 -10.2 c0 -6.32 4.6 -10.2 10.6 -10.2 c6.2 0 10.6 4.08 10.6 10.2 c0 6.28 -4.64 10.2 -10.6 10.2 z M76.44 30 c0 2.96 1.48 4.64 4.48 4.64 c0.84 0 1.6 -0.12 2.2 -0.4 c1.12 -0.44 1.88 -1.28 2.28 -2.44 c0.16 -0.56 0.24 -1.16 0.24 -1.8 s-0.08 -1.24 -0.24 -1.8 c-0.44 -1.24 -1.12 -1.92 -2.28 -2.48 c-0.6 -0.24 -1.36 -0.36 -2.2 -0.36 c-3 0 -4.48 1.68 -4.48 4.64 z M76.44 38 l0 10 l-6 0 l0 -18 c0 -6.4 4.52 -10.2 10.56 -10.2 c6.16 0 10.64 4.04 10.64 10.16 c0 5.68 -4.28 10.24 -9.96 10.24 c-1.16 0 -2.16 -0.2 -3 -0.6 c-0.88 -0.36 -1.64 -0.92 -2.24 -1.6 z M109.88 35.04 l-9 0 l-1.76 4.96 l-6.52 0 l9.8 -24.48 l6 0 l9.8 24.48 l-6.56 0 z M102.84 29.48 l5.08 0 l-2.52 -7.12 z M120.16 12 l6 0 l0 28 l-6 0 l0 -28 z M130.04000000000002 12 l6 0 l0 28 l-6 0 l0 -28 z"/></g>
			</g>
		</svg>
	